<svg width="32" height="32" viewBox="0 0 32 32" fill="none" xmlns="http://www.w3.org/2000/svg">
<path d="M25.3333 4C26.8061 4 28 5.19391 28 6.66667V25.3333C28 26.8061 26.8061 28 25.3333 28H6.66667C5.19391 28 4 26.8061 4 25.3333V6.66667C4 5.19391 5.19391 4 6.66667 4H16" stroke="white" stroke-linecap="round" stroke-linejoin="round"/>
<path d="M11.3333 13.3335C12.4379 13.3335 13.3333 12.4381 13.3333 11.3335C13.3333 10.2289 12.4379 9.3335 11.3333 9.3335C10.2288 9.3335 9.33334 10.2289 9.33334 11.3335C9.33334 12.4381 10.2288 13.3335 11.3333 13.3335Z" stroke="white" stroke-linecap="round" stroke-linejoin="round"/>
<path d="M28 20.0002L21.3333 13.3335L6.66666 28.0002" stroke="white" stroke-linecap="round" stroke-linejoin="round"/>
</svg>
