<svg width="32" height="32" viewBox="0 0 32 32" fill="none" xmlns="http://www.w3.org/2000/svg">
<path d="M1.33334 16.8258V10.6667C1.33334 9.95942 1.6143 9.28115 2.11439 8.78105C2.61449 8.28095 3.29277 8 4.00001 8H5.92884C7.25489 8 8.52663 7.47324 9.4643 6.53561L10.2427 5.75727C11.3679 4.63211 12.894 4 14.4852 4H17.5147C19.106 4 20.6322 4.63217 21.7574 5.75745L22.5354 6.53546C23.4731 7.47319 24.7449 8 26.071 8H28C28.7073 8 29.3855 8.28095 29.8856 8.78105C30.3857 9.28115 30.6667 9.95942 30.6667 10.6667V25.3333C30.6667 26.0406 30.3857 26.7189 29.8856 27.219C29.3855 27.719 28.7073 28 28 28H16H4.00001C3.29277 28 2.61449 27.719 2.11439 27.219C1.6143 26.7189 1.33334 26.0406 1.33334 25.3333V24.1023" stroke="white" stroke-linecap="round" stroke-linejoin="round"/>
<path d="M16 22.6667C18.9455 22.6667 21.3333 20.2789 21.3333 17.3333C21.3333 14.3878 18.9455 12 16 12C13.0545 12 10.6667 14.3878 10.6667 17.3333C10.6667 20.2789 13.0545 22.6667 16 22.6667Z" stroke="white" stroke-linecap="round" stroke-linejoin="round"/>
</svg>
