<svg width="46" height="19" viewBox="0 0 46 19" fill="none" xmlns="http://www.w3.org/2000/svg">
<g clip-path="url(#clip0_2073_631)">
<path fill-rule="evenodd" clip-rule="evenodd" d="M27.2113 7.31511L27.2788 8.37828C27.2872 8.43737 27.2872 8.47954 27.2872 8.56391C27.2872 8.64829 27.3041 8.65671 27.3041 8.74109C27.3041 8.97735 27.3463 9.22203 27.3463 9.46671L27.3716 9.81268C27.3884 9.93923 27.3884 10.0574 27.3884 10.1839C27.3884 10.2852 27.4137 10.4286 27.4222 10.5299L27.4475 11.053C27.4475 11.1374 27.4643 11.1543 27.4643 11.2302L27.5065 11.9558C27.5065 12.0402 27.5234 12.0486 27.5234 12.133C27.5234 12.3439 27.5487 12.4452 27.5487 12.673L27.5825 13.0358L26.0806 13.0357L26.359 11.6014C26.4012 11.3567 26.4603 11.1289 26.5025 10.8842C26.5193 10.7661 26.5447 10.6563 26.57 10.5298C26.5953 10.4032 26.6206 10.2935 26.6375 10.167L26.9159 8.7326C26.9665 8.49637 27.0003 8.2517 27.0594 8.0154L27.1606 7.4838C27.1691 7.45004 27.1691 7.44163 27.1775 7.391L27.2028 7.2982L27.2112 7.31504L27.2113 7.31511ZM35.3451 9.82952H33.8854C33.8263 9.82952 33.8516 9.77889 33.8516 9.71139L34.0204 7.03668C34.0204 6.95231 34.0372 6.94389 34.0372 6.86793L34.0878 5.97355C34.0963 5.91447 34.0963 5.86388 34.0963 5.79634C34.0963 5.6445 34.1385 5.26478 34.1385 5.0876C34.1385 5.00326 34.1553 4.98635 34.1553 4.91042L34.1722 4.54761C34.1806 4.44636 34.1975 4.29448 34.1975 4.18481H35.7585C36.1888 4.18481 36.0622 4.50544 36.0622 4.84296L35.8681 7.86359C35.8681 7.9311 35.8765 7.99014 35.8681 8.05768C35.8259 8.43737 35.8259 8.92676 35.7837 9.29799C35.7585 9.52583 35.8512 9.82113 35.345 9.82113V9.82959L35.3451 9.82952ZM25.1356 17.6933C25.1694 17.533 25.2031 17.3558 25.2369 17.1955C25.2706 17.0183 25.3044 16.858 25.3381 16.6808C25.3719 16.5121 25.4057 16.3433 25.4394 16.1662C25.4732 15.9974 25.5069 15.8202 25.5491 15.6599L27.7766 15.6599C27.7766 15.8033 27.8188 16.0311 27.8188 16.1745C27.8272 16.4277 27.8694 16.6892 27.8778 16.9424C27.8863 17.1111 27.9201 17.2883 27.9201 17.4655C27.9201 17.5414 27.9116 17.6933 27.9791 17.6933H33.3032C33.3707 17.6933 33.3454 17.5752 33.3623 17.4064C33.3791 17.1955 33.3791 16.9677 33.4045 16.7567C33.4129 16.7062 33.4045 16.6471 33.4045 16.5964L33.4635 15.778C33.4804 15.6261 33.472 15.4321 33.4973 15.2802C33.5226 15.1199 33.5141 14.9511 33.531 14.7824C33.5395 14.7317 33.531 14.6811 33.5395 14.622L33.6238 13.3142C33.6238 13.2467 33.6238 13.2045 33.6323 13.137C33.6576 12.9514 33.6745 12.6561 33.6745 12.4705H34.0626C34.1217 12.4705 34.1132 12.5464 34.1301 12.597L34.5604 14.4026C34.611 14.6136 34.6701 14.8583 34.7207 15.0692C34.8895 15.7273 35.0498 16.3771 35.1932 17.0436L35.3114 17.5414C35.3282 17.6005 35.3198 17.6848 35.3789 17.6848H38.7286C38.7286 17.6089 38.6695 17.4401 38.6442 17.3558L38.2983 16.0648C38.1633 15.5164 37.9945 14.9764 37.8595 14.428C37.7245 13.888 37.5558 13.3395 37.4292 12.7995C37.4039 12.6898 37.3617 12.5801 37.3364 12.4705C37.7499 12.4705 38.062 12.3608 38.2898 12.1752C38.6696 11.8714 38.9058 11.4073 38.8974 10.8926L39.083 7.93951C39.0998 7.84672 39.0914 7.72859 39.1083 7.64421L39.142 7.0451C39.142 6.9776 39.1505 6.96076 39.1589 6.9101C39.1673 6.85105 39.1589 6.80884 39.1673 6.7498C39.1927 6.60637 39.1842 6.45449 39.1927 6.31103L39.2348 5.72042C39.2433 5.57696 39.2433 5.4082 39.2602 5.26477L39.3108 4.3704H40.3148C40.3148 4.64883 40.2726 4.91884 40.2726 5.19727L40.2135 6.02414C40.1967 6.16757 40.2051 6.30257 40.1967 6.446L40.1376 7.27287C40.1376 7.42475 40.1292 7.56817 40.1123 7.69472L39.9098 11.0191C39.893 11.1372 39.893 11.3144 39.8845 11.4326C39.8845 11.5086 39.8677 11.5338 39.8677 11.6267L39.5977 16.0142C39.5892 16.1408 39.5639 16.2926 39.5639 16.4192L39.5133 17.2546C39.4964 17.3811 39.488 17.533 39.488 17.6764H42.7955C42.863 17.6764 42.8377 17.5836 42.8377 17.5077C42.8377 17.3726 42.8715 17.2377 42.8715 17.0858L42.939 16.0395C42.9559 15.9299 42.9643 15.7527 42.9643 15.6261C42.9643 15.5501 42.9812 15.5164 42.9812 15.4151C42.9812 15.3139 42.998 15.2886 42.998 15.2042C42.998 15.0945 43.0065 14.9005 43.0233 14.7907C43.0486 14.6473 43.0318 14.5039 43.0486 14.3604C43.0571 14.2339 43.074 14.0905 43.074 13.9555L43.1077 13.5336C43.1077 13.4408 43.1162 13.407 43.1246 13.3395L43.1583 12.6898C43.1752 12.4451 43.2089 12.1076 43.2174 11.8629L43.2596 11.0192C43.2681 10.8926 43.2934 10.7492 43.2934 10.6142C43.2934 10.4707 43.3186 10.3273 43.3271 10.1923C43.3356 9.89698 43.3609 9.64388 43.3693 9.34854L43.6646 4.76692C43.6731 4.69096 43.6731 4.63192 43.6731 4.54754C43.6731 4.47158 43.6899 4.43787 43.6899 4.33661H45.8837C45.8246 4.09193 45.7824 3.8388 45.7233 3.57724L45.4955 2.43815C45.4702 2.30315 45.4449 2.18502 45.4196 2.05005C45.3942 1.93192 45.3689 1.79692 45.3436 1.67879C45.3183 1.54378 45.2761 1.41719 45.2761 1.28223H39.201C39.1926 1.34131 39.1757 1.38352 39.1588 1.43411C39.1082 1.57753 39.0407 1.73787 39.007 1.88129H38.9732C38.9564 1.82221 38.8973 1.78 38.8551 1.73783C38.7623 1.64504 38.6526 1.58599 38.5429 1.52691C38.2645 1.35815 37.8257 1.28223 37.4544 1.28223H31.0925C31.0925 1.51007 31.0587 1.68724 31.0587 1.89817C31.0587 1.96571 31.0503 1.99101 31.0503 2.03318C31.0418 2.09226 31.0503 2.14285 31.0418 2.19351C31.0334 2.27785 31.025 2.4129 31.0165 2.49728C31.0081 2.54787 31.0165 2.59853 31.0165 2.64912L30.9659 3.4254C30.9406 3.61103 30.9322 4.1173 30.9153 4.35353L30.89 4.80917C30.89 4.96947 30.8562 5.10448 30.8562 5.25632L30.7634 6.64009C30.755 6.89322 30.7128 7.15478 30.7212 7.40791C30.7212 7.66105 30.6875 7.9226 30.6791 8.17574L30.5609 9.99824C30.5609 10.361 30.5018 10.7323 30.5018 11.0951H30.485C30.485 10.7914 30.3753 10.2176 30.35 9.88011L30.3247 9.6776C30.3163 9.59326 30.3162 9.55105 30.3078 9.47513L30.0209 7.05356C29.945 6.52196 29.9113 5.9651 29.8269 5.44195L29.7763 5.03697L29.346 1.39194C29.3291 1.24006 29.3122 1.29068 28.9916 1.29068L25.819 1.29065L25.2453 3.66159C24.7981 5.44191 24.3847 7.23066 23.9374 9.01945C23.8868 9.21353 23.8362 9.41601 23.794 9.6101L22.8574 13.4661L22.7815 13.7698L21.9124 17.3389C21.9039 17.3642 21.8364 17.6342 21.8364 17.6342C21.8449 17.6764 21.8364 17.6595 21.887 17.6595H25.1355V17.6932L25.1356 17.6933Z" fill="#ED2353"/>
<path fill-rule="evenodd" clip-rule="evenodd" d="M0.539985 15.9465C0.548441 15.8706 0.565279 15.7947 0.582192 15.7272L0.632782 15.4487C0.641239 15.4065 0.641239 15.3559 0.658114 15.3053C0.666533 15.2631 0.674953 15.2293 0.683409 15.1956C0.691866 15.1197 0.708704 15.0438 0.717161 14.9594C0.725617 14.8835 0.750912 14.8075 0.759368 14.7485C0.759368 14.6979 0.835328 14.2675 0.852166 14.2338C0.852166 14.1663 0.953457 13.5335 0.970296 13.4997C0.978752 13.3816 1.02089 13.2466 1.02934 13.1285C1.0378 12.9935 1.08843 12.8163 1.1053 12.6813C1.11376 12.5632 1.14751 12.4113 1.16438 12.2932C1.17284 12.2257 1.18122 12.1751 1.19814 12.0991C1.20659 12.0485 1.22347 11.9978 1.22347 11.9304C1.24876 11.846 1.25722 11.6857 1.28251 11.6181C1.29097 11.4916 1.32472 11.365 1.3416 11.2385C1.35002 11.1878 1.35844 11.1541 1.36689 11.095C1.37535 11.0528 1.36689 11.0191 1.39223 11.0022C1.39223 10.8925 1.4344 10.7828 1.4344 10.69C1.45973 10.5466 1.49348 10.3947 1.51036 10.2512C1.52723 10.15 1.54411 10.0572 1.56098 9.95594C1.5694 9.92219 1.57782 9.84627 1.58628 9.81252C1.59473 9.76193 1.60315 9.74501 1.60315 9.69442C1.61157 9.61846 1.62845 9.54254 1.64532 9.46658C1.65378 9.4075 1.67907 9.3147 1.67907 9.26411C1.69595 9.17973 1.71286 9.0869 1.72128 9.01094C1.72974 8.84218 1.79724 8.67346 1.79724 8.49629C1.81408 8.45408 1.83945 8.31066 1.83945 8.26845C1.85629 8.18407 1.8732 8.09127 1.88166 8.01531L1.95762 7.55125C1.96604 7.5175 1.96604 7.50904 1.96604 7.47529C1.96604 7.45841 1.96604 7.45841 1.97449 7.44154L1.98295 7.42466C1.98295 7.29811 2.02512 7.14623 2.042 7.0281C2.042 6.97751 2.0842 6.7328 2.10108 6.70747C2.10108 6.59779 2.13483 6.55562 2.13483 6.45433C2.14329 6.41212 2.17704 6.26028 2.17704 6.20965C2.17704 6.1506 2.19388 6.12531 2.20233 6.06623L2.26984 5.71184C2.26984 5.60216 2.28671 5.5515 2.30362 5.45024C2.31204 5.41649 2.33738 5.25616 2.34579 5.21402C2.35425 5.13806 2.37113 5.08744 2.37955 5.0031C2.388 4.94401 2.45551 4.47149 2.48084 4.4462C2.48084 4.37024 2.48926 4.3534 2.50613 4.2859C2.51459 4.22681 2.54834 3.93151 2.57367 3.90618C2.57367 3.81338 2.59051 3.74588 2.60742 3.65304C2.62426 3.56866 2.62426 3.50962 2.64959 3.44211L2.74243 2.91055C2.74243 2.84301 2.81839 2.3874 2.83523 2.36211C2.83523 2.28615 2.90273 1.88117 2.92803 1.83054C2.92803 1.77146 2.97023 1.5099 2.98711 1.47612C2.98711 1.40019 3.0124 1.26523 3.02932 1.18927C3.02932 1.13864 3.13899 0.514276 3.14741 0.480487C3.14741 0.362395 3.18962 0.218933 3.20649 0.100803C3.20649 0.0333005 3.21491 0.0501762 3.22333 -0.000488281H21.575L21.4906 0.556372C21.4738 0.64075 21.4991 0.590123 21.4569 0.623875L21.4653 0.666083C21.44 0.792631 21.3725 1.34953 21.3303 1.40858C21.3388 1.48453 21.2628 1.99077 21.2291 2.04139C21.2375 2.12574 21.1615 2.54767 21.1363 2.64888L21.0856 2.93577L20.9253 3.8133C20.9338 3.87235 20.8578 4.33641 20.8325 4.37862C20.8409 4.50517 20.7903 4.69926 20.765 4.83426L20.6891 5.28141C20.6806 5.29829 20.6806 5.29829 20.6806 5.3152L20.6722 5.3405C20.6806 5.408 20.6637 5.56834 20.6216 5.61893C20.63 5.71172 20.5878 5.88894 20.5709 5.98174C20.5541 6.08299 20.4866 6.57235 20.4528 6.61452C20.4613 6.69048 20.4022 7.09546 20.36 7.14612C20.3685 7.18829 20.3263 7.53422 20.284 7.58485C20.3009 7.69452 20.1997 8.108 20.1828 8.25984C20.1575 8.35268 20.149 8.45393 20.1322 8.54673L20.0731 8.84203C20.0816 8.88424 20.0309 9.31455 19.9803 9.38202C19.9972 9.44956 19.9719 9.60986 19.9297 9.66049C19.9382 9.73641 19.9129 9.82079 19.9044 9.90516L19.8116 10.3692C19.82 10.4283 19.7947 10.6224 19.761 10.6645C19.7694 10.7489 19.7272 11.0442 19.685 11.1033C19.6935 11.1876 19.6682 11.2805 19.6513 11.3649C19.6428 11.4239 19.626 11.5758 19.5922 11.618C19.6006 11.6686 19.5922 11.7108 19.5838 11.7615C19.5838 11.7867 19.5753 11.812 19.5669 11.8374C19.5585 11.888 19.5669 11.8627 19.5416 11.8965C19.5501 11.9555 19.5416 11.9893 19.5331 12.0399C19.5331 12.0568 19.5247 12.0905 19.5247 12.1074C19.5163 12.158 19.5247 12.1327 19.4994 12.1665L19.4488 12.563C19.415 12.6643 19.4825 12.4786 19.4403 12.5883C19.4403 12.5883 19.4319 12.6052 19.4319 12.5968C19.4319 12.5968 19.4319 12.6052 19.4235 12.6052C19.4319 12.6558 19.4235 12.698 19.415 12.7487L19.3813 12.8752C19.3981 12.9427 19.339 13.2971 19.3053 13.3477C19.3138 13.4321 19.2547 13.8287 19.2125 13.8793C19.221 13.9637 19.1787 14.2759 19.1365 14.3265C19.145 14.394 19.1281 14.5459 19.0943 14.5965C19.1028 14.6725 19.0775 14.7652 19.0606 14.8496L19.0015 15.2209C18.9931 15.28 18.9593 15.5162 18.934 15.5668C18.9509 15.6512 18.9172 15.7609 18.9002 15.8537C18.8834 15.9381 18.8834 16.0562 18.8412 16.1153C18.8496 16.1913 18.8243 16.2756 18.8159 16.3516C18.8074 16.4191 18.799 16.5203 18.7653 16.5625C18.7821 16.6637 18.7231 16.8747 18.7062 16.9843C18.6893 17.094 18.6894 17.2965 18.6302 17.3724C18.6387 17.4568 18.5965 17.769 18.5543 17.8196C18.5627 17.8956 18.4952 18.3174 18.4615 18.3596C18.4699 18.4609 18.4109 18.7393 18.394 18.8574C18.3771 18.984 18.4024 19.0009 18.2758 19.0093H2.41315V19.0009C1.90688 19.0009 1.40064 19.0009 0.90283 19.0093H0C0.00841913 18.9418 0.0252948 18.8659 0.0422079 18.7899L0.109711 18.3512C0.11813 18.3174 0.135005 18.1655 0.151919 18.1487C0.151919 18.0981 0.210965 17.7099 0.227878 17.6846C0.227878 17.6255 0.244716 17.5412 0.253173 17.4905C0.438805 16.4105 0.295381 17.3471 0.514765 15.9211L0.540059 15.9464L0.539985 15.9465ZM4.38749 17.4147H7.23941C8.12536 13.0525 9.30662 6.0999 10.0913 1.5352L7.26478 1.53516C7.29853 2.53921 4.52257 16.6637 4.39598 17.4231L4.38753 17.4147H4.38749ZM11.5256 12.7993C11.5003 12.8584 11.4919 12.9681 11.4835 13.044C11.475 13.12 11.4413 13.2128 11.4413 13.2972C11.4413 13.3478 11.4159 13.4153 11.4075 13.4659C11.3991 13.525 11.3822 13.6009 11.3738 13.6684C11.3569 13.6937 11.3147 13.9553 11.3147 14.0144C11.2894 14.0481 11.2219 14.4784 11.2219 14.5544L11.1291 15.0268C11.1122 15.1534 11.07 15.2547 11.0869 15.415C11.1122 15.6681 11.3316 15.8284 11.6015 15.7862C11.804 15.7525 11.7872 15.7356 11.9222 15.6597C11.9728 15.5753 12.1753 15.4065 12.1584 15.2716C12.1922 15.2209 12.2512 14.8328 12.2597 14.7737C12.285 14.6641 12.3525 14.3266 12.3441 14.2421L12.3525 14.2168C12.3525 14.2084 12.42 14.0144 12.4031 13.8962L12.4284 13.8118C12.4369 13.7865 12.4369 13.7528 12.4453 13.719C12.4537 13.6599 12.479 13.5925 12.4621 13.5334C12.4706 13.5166 12.4706 13.5334 12.479 13.4996L12.4958 13.4237C12.5042 13.3646 12.5042 13.3646 12.5042 13.314C12.5465 13.2634 12.5633 13.0356 12.5802 12.9512C12.5971 12.8415 12.6562 12.6053 12.6477 12.5125L12.7068 12.2593C12.7236 12.1665 12.749 12.0737 12.7405 11.9893C12.7659 11.9556 12.7659 11.905 12.7574 11.8543C12.8333 11.7362 12.7152 11.2806 12.673 11.154C12.6308 11.0359 12.4114 10.6815 12.344 10.6477C12.3271 10.6056 12.1415 10.3524 12.0993 10.3271C12.0824 10.2765 12.0993 10.3187 12.0656 10.2765L11.8293 9.9812L11.7702 9.8884C11.6943 9.79557 11.3399 9.3315 11.3061 9.32305C11.2893 9.264 11.1458 9.09521 11.0953 9.03616C11.0531 8.98557 10.9096 8.78302 10.8758 8.76619C10.859 8.73244 10.6565 8.44555 10.6227 8.42867C10.5805 8.32742 10.5046 8.23458 10.4455 8.13337C10.4202 8.09116 10.3864 8.03211 10.3611 7.97303C10.3443 7.93086 10.319 7.84648 10.2936 7.81273C10.2599 7.61864 10.2431 7.52584 10.2514 7.31491L10.3274 6.77493L10.454 6.06615C10.4793 5.94806 10.5468 5.6443 10.5299 5.54304C10.5721 5.48396 10.6059 5.21399 10.6059 5.12957C10.6397 5.08736 10.7072 4.65705 10.6987 4.598C10.7577 4.50517 10.783 4.10861 10.8252 3.96519C10.8421 3.84709 10.9096 3.5855 10.9012 3.48428C10.918 3.46745 10.9097 3.48428 10.918 3.45053L10.9518 3.30711C10.9687 3.24802 10.994 3.18052 10.9856 3.12148C11.0109 3.08772 11.0024 3.1046 11.0193 3.05394C11.0278 3.02864 11.0362 3.01177 11.0446 2.98643C11.0615 2.93584 11.0784 2.90209 11.0784 2.84301C11.1206 2.8008 11.1712 2.65738 11.1965 2.58987L11.3315 2.33674C11.3737 2.31141 11.4159 2.2439 11.4496 2.20173C11.4919 2.14265 11.5256 2.11735 11.5762 2.07515C11.6184 2.04139 11.8546 1.88109 11.8631 1.86422C11.939 1.83892 12.0234 1.77988 12.1078 1.74613C12.1921 1.71234 12.2681 1.67859 12.3609 1.65329C12.555 1.59425 12.7237 1.56895 12.9346 1.55204C13.5337 1.5352 14.1497 1.55204 14.7572 1.55204C15.3394 1.55204 15.8878 1.60263 16.2 1.94014C16.2675 2.00764 16.4109 2.20173 16.4531 2.31986C16.4869 2.42112 16.5291 2.49704 16.5544 2.60675C16.5797 2.72484 16.5881 2.83455 16.5881 2.97798C16.5881 3.0286 16.5797 3.12144 16.5713 3.1889C16.5628 3.25641 16.546 3.34078 16.546 3.41674C16.5375 3.4927 16.5122 3.5855 16.5038 3.66142C16.4953 3.7458 16.4785 3.86393 16.4532 3.93143C16.4532 3.99048 16.4279 4.08331 16.4194 4.15082C16.4026 4.23516 16.3857 4.31957 16.3772 4.3955C16.3688 4.42079 16.335 4.61488 16.335 4.64863C16.3266 4.70772 16.3097 4.77518 16.2928 4.8511C16.276 4.93548 16.2591 5.01144 16.2591 5.09578C16.2337 5.17174 16.2253 5.27299 16.2084 5.36579C16.1916 5.47547 16.1747 5.55988 16.1579 5.6611C16.1579 5.72018 16.1241 5.86357 16.1156 5.91423C16.1072 5.96486 16.1072 5.98174 16.0988 6.04082C16.0903 6.08299 16.0735 6.13362 16.0735 6.19266C16.0651 6.25175 16.0482 6.32767 16.0313 6.39517C16.0144 6.47113 15.9975 6.55547 15.9975 6.62297C15.9891 6.6736 15.9722 6.7411 15.9553 6.80861L13.7025 6.81706C13.7025 6.65676 13.8037 6.36988 13.7953 6.21796C13.8375 6.16737 13.8797 5.84669 13.8713 5.77081C13.8881 5.74548 13.8797 5.77081 13.8881 5.7286L13.9556 5.28141C14.0062 5.22233 14.0484 4.74143 14.0822 4.63172C14.0991 4.51359 14.1497 4.33641 14.1413 4.2267C14.175 4.17611 14.175 4.04953 14.2003 3.99048L14.2088 3.9061L14.2341 3.79643C14.3016 3.46737 14.175 3.18048 13.8291 3.18048C13.5507 3.18048 13.2637 3.34924 13.1794 3.5855C13.1625 3.62771 13.1625 3.653 13.1456 3.68676C13.1288 3.77113 13.1034 3.88926 13.1034 3.97364C13.0866 4.0496 13.0781 4.10019 13.0612 4.18457C13.0444 4.26895 13.0275 4.33645 13.0275 4.42925L12.9937 4.5558L12.9684 4.70768C12.9515 4.81735 12.9262 4.91861 12.9178 5.0199C12.8925 5.03674 12.901 5.0874 12.8925 5.12957C12.884 5.18862 12.8756 5.20553 12.8672 5.25612C12.8587 5.33208 12.825 5.44175 12.825 5.51771C12.8081 5.58521 12.7997 5.64426 12.7828 5.72864C12.7659 5.81298 12.749 5.88052 12.749 5.97332C12.7237 6.00707 12.69 6.25175 12.6815 6.33612C12.673 6.39517 12.6562 6.63143 12.673 6.69051C12.6899 6.7411 12.6562 6.70735 12.6984 6.73272C12.6562 6.85081 12.808 7.14616 12.8755 7.26429C12.9178 7.33179 12.8671 7.28958 12.9346 7.32337C12.9262 7.36554 12.9262 7.33179 12.9346 7.36554C12.9346 7.38242 12.9515 7.39929 12.9599 7.41617L13.3649 7.96461C13.3987 7.9899 13.3396 7.96461 13.3987 7.9899C13.3987 8.04049 13.6012 8.27679 13.6434 8.31054L13.9471 8.66493C13.9471 8.67339 13.9303 8.67339 13.9724 8.73244L14.3522 9.20495L14.5631 9.46655C14.6221 9.54251 14.5968 9.52563 14.6474 9.55092C14.6559 9.60151 14.774 9.74498 14.8078 9.80406C14.8753 9.90531 14.9343 10.0487 14.9849 10.074C14.9681 10.1247 14.9765 10.0909 15.0018 10.15C15.0186 10.1753 15.0186 10.1837 15.0355 10.226L15.1452 10.5381C15.179 10.6647 15.1537 10.6731 15.1958 10.7069C15.1536 10.8082 15.179 10.9601 15.179 11.0697C15.1705 11.1372 15.1621 11.1541 15.1621 11.2385C15.1453 11.2638 15.0862 11.6772 15.0862 11.7447C15.0609 11.7701 15.0862 11.7363 15.0693 11.7785C15.0693 11.7869 15.0609 11.8376 15.0609 11.8376C15.0524 11.8966 15.044 11.9304 15.044 11.981C15.0272 12.0147 14.9681 12.3607 14.9681 12.4113C14.9512 12.4788 14.9343 12.5801 14.9259 12.6645C14.9174 12.7573 14.8836 12.8416 14.8836 12.9513C14.8668 12.9682 14.8668 13.0104 14.8583 13.0442C14.8499 13.0947 14.8499 13.1201 14.8415 13.1622C14.8246 13.2466 14.8162 13.3395 14.7993 13.4154C14.7993 13.4998 14.7571 13.6179 14.7571 13.7191C14.7403 13.7445 14.7149 13.9132 14.7149 13.9638C14.698 14.082 14.6643 14.2001 14.6558 14.3266C14.639 14.3688 14.5968 14.6219 14.5968 14.6894C14.5715 14.7063 14.5715 14.7738 14.5715 14.8076C14.563 14.8666 14.5546 14.8919 14.5461 14.951C14.5293 15.0522 14.5039 15.1619 14.4955 15.2632C14.4787 15.3054 14.4618 15.3982 14.4533 15.4488C14.4365 15.5079 14.4111 15.6007 14.4027 15.6682L14.2593 16.0732C14.1833 16.2588 14.0905 16.3685 14.0568 16.4529C14.04 16.4613 13.9387 16.6048 13.9134 16.6385C13.8796 16.6807 13.8712 16.6891 13.8374 16.7313L13.7446 16.8326C13.6771 16.9254 13.4071 17.1195 13.2806 17.1701C13.213 17.1954 13.154 17.2123 13.0865 17.2545C13.0105 17.2629 12.7152 17.3641 12.4452 17.3726L11.6943 17.3894C11.5508 17.3894 11.458 17.4063 11.3315 17.4063L10.3527 17.4064C10.2599 17.4064 10.2431 17.3895 10.1586 17.3895C10.1165 17.3895 9.99834 17.3642 9.94775 17.3558C9.91396 17.3473 9.88867 17.3473 9.84646 17.3389C9.80425 17.3305 9.78741 17.3136 9.73678 17.3136C9.44148 17.2461 9.3571 17.1448 9.20522 17.0352C9.17989 17.0183 9.19676 17.0267 9.17989 17.0183C9.15459 16.9761 9.17989 17.0099 9.14614 16.9677C9.13768 16.9509 9.1293 16.9509 9.12084 16.9339L8.83395 16.394C8.8255 16.318 8.8002 16.2505 8.79175 16.1746C8.78329 16.0902 8.8002 16.0143 8.78329 15.9384C8.80862 15.8877 8.84237 15.4996 8.85083 15.4067C8.86767 15.2717 8.93517 14.9933 8.92679 14.8836C8.96054 14.833 8.98583 14.6558 8.97738 14.5968L8.98583 14.5714C8.98583 14.5714 9.06179 14.293 9.04488 14.1833C9.07863 14.1411 9.16301 13.6433 9.15455 13.5674L9.18831 13.4408C9.19676 13.3817 9.21364 13.348 9.19676 13.2974L9.2136 13.2468C9.2136 13.2384 9.22206 13.2046 9.22206 13.1962C9.23051 13.1624 9.23051 13.1287 9.2389 13.0949C9.24735 13.0274 9.27268 12.9515 9.26423 12.884C9.30644 12.8249 9.34857 12.5465 9.34019 12.4621C9.37394 12.4115 9.44144 11.939 9.45828 11.8377C9.50891 11.7955 10.5214 11.8209 10.5805 11.8209H11.728L11.6437 12.3187L11.6099 12.5128C11.5931 12.6056 11.5593 12.6984 11.5593 12.7996H11.5255L11.5256 12.7993Z" fill="#ED2353"/>
</g>
<defs>
<clipPath id="clip0_2073_631">
<rect width="45.8836" height="19.0098" fill="white"/>
</clipPath>
</defs>
</svg>
